<svg width="97" height="96" xmlns="http://www.w3.org/2000/svg" xmlns:xlink="http://www.w3.org/1999/xlink" xml:space="preserve" overflow="hidden"><g transform="translate(-728 -312)"><g><g><g><g><path d="M801 342 789 342 789 334.3C789.046 330.121 785.694 326.695 781.515 326.65 781.46 326.649 781.405 326.649 781.35 326.65 779.755 326.65 778.202 327.164 776.921 328.115 775.612 327.307 774.132 326.818 772.6 326.686 771.568 322.077 766.996 319.177 762.386 320.208 759.156 320.932 756.632 323.455 755.909 326.686 751.969 327.026 748.957 330.345 749 334.3L749 396C749.007 398.206 750.794 399.993 753 400L785 400C787.206 399.993 788.993 398.206 789 396L789 392 801 392C803.206 391.993 804.993 390.206 805 388L805 346C804.993 343.794 803.206 342.007 801 342ZM787 396C787 397.105 786.105 398 785 398L753 398C751.895 398 751 397.105 751 396L751 338 787 338ZM787 336 751 336 751 334.3C750.978 331.201 753.473 328.67 756.572 328.649 756.63 328.648 756.687 328.649 756.745 328.65L757.625 328.65 757.737 327.777C758.17 324.18 761.437 321.615 765.034 322.048 768.036 322.409 770.402 324.775 770.763 327.777L770.97 328.65 771.85 328.65C773.485 328.664 775.075 329.195 776.39 330.167L777.052 330.651 777.652 330.097C778.659 329.167 779.979 328.651 781.35 328.65 784.437 328.617 786.967 331.092 787 334.179 787 334.22 787 334.26 787 334.3ZM789 349 798 349 798 385 789 385ZM803 388C803 389.105 802.105 390 801 390L789 390 789 387 800 387 800 347 789 347 789 344 801 344C802.105 344 803 344.895 803 346Z" fill="#000000" fill-rule="nonzero" fill-opacity="1"/><path d="M759 386C759.552 386 760 385.552 760 385L760 349C760 348.448 759.552 348 759 348 758.448 348 758 348.448 758 349L758 385C758 385.552 758.448 386 759 386Z" fill="#000000" fill-rule="nonzero" fill-opacity="1"/><path d="M769 386C769.552 386 770 385.552 770 385L770 349C770 348.448 769.552 348 769 348 768.448 348 768 348.448 768 349L768 385C768 385.552 768.448 386 769 386Z" fill="#000000" fill-rule="nonzero" fill-opacity="1"/><path d="M779 386C779.552 386 780 385.552 780 385L780 349C780 348.448 779.552 348 779 348 778.448 348 778 348.448 778 349L778 385C778 385.552 778.448 386 779 386Z" fill="#000000" fill-rule="nonzero" fill-opacity="1"/></g></g></g></g></g></svg>