<svg width="96" height="96" xmlns="http://www.w3.org/2000/svg" xmlns:xlink="http://www.w3.org/1999/xlink" xml:space="preserve" overflow="hidden"><g transform="translate(-592 -312)"><g><path d="M621.157 354.376C622.216 354.362 623.273 354.447 624.316 354.629L625.978 354.962C627.119 355.19 628.162 355.762 628.969 356.6L632.569 360.329 634.022 358.955 630.408 355.21C629.318 354.08 627.91 353.31 626.371 353L624.709 352.667C623.542 352.458 622.357 352.36 621.171 352.375 618.061 352.354 614.592 350.83 611.063 347.301 605.863 341.972 600.11 333.726 598.463 331.314 598.194 330.917 598.244 330.384 598.584 330.045L598.728 329.901C599.119 329.511 599.752 329.511 600.142 329.901L615.8 345.558C616.276 346.034 617.047 346.034 617.523 345.558 617.999 345.082 617.999 344.311 617.523 343.835L601.865 328.18C601.475 327.789 601.475 327.156 601.865 326.766L602.747 325.883C603.138 325.493 603.771 325.493 604.161 325.883L619.817 341.539C620.293 342.015 621.064 342.015 621.54 341.539 622.016 341.063 622.016 340.292 621.54 339.816L605.884 324.161C605.494 323.771 605.494 323.138 605.884 322.747L606.766 321.864C607.156 321.474 607.789 321.474 608.18 321.864L623.836 337.52C624.291 338.015 625.062 338.048 625.557 337.593 626.052 337.138 626.085 336.368 625.63 335.872 625.607 335.847 625.583 335.823 625.558 335.8L609.9 320.142C609.51 319.751 609.51 319.118 609.9 318.728L610.05 318.577C610.238 318.389 610.492 318.284 610.758 318.284 610.956 318.284 611.149 318.343 611.313 318.453 616.973 322.212 622.293 326.458 627.213 331.144 630.758 334.689 632.28 338.174 632.288 341.294 632.267 342.504 632.348 343.714 632.531 344.911L632.92 347.151C633.12 348.296 633.68 349.347 634.52 350.151L638.82 354.266 640.235 352.852 635.905 348.706C635.373 348.198 635.018 347.531 634.894 346.806L634.506 344.565C634.342 343.48 634.271 342.382 634.292 341.285 634.282 337.416 632.325 333.419 628.632 329.726 623.617 324.951 618.196 320.623 612.429 316.791 611.239 315.994 609.652 316.15 608.639 317.163L608.49 317.312C607.892 317.909 607.574 318.731 607.615 319.575 607.568 319.575 607.521 319.575 607.473 319.575 606.677 319.573 605.913 319.889 605.352 320.454L604.47 321.337C603.905 321.898 603.589 322.662 603.591 323.458 603.591 323.504 603.591 323.551 603.591 323.598 603.545 323.598 603.498 323.598 603.451 323.598 602.655 323.596 601.891 323.912 601.33 324.477L600.448 325.36C599.85 325.956 599.533 326.778 599.574 327.621 599.527 327.621 599.48 327.621 599.432 327.621 598.636 327.619 597.872 327.935 597.311 328.5L597.168 328.642C596.147 329.661 595.996 331.262 596.808 332.454 598.475 334.88 604.318 343.257 609.632 348.7 613.325 352.393 617.305 354.35 621.157 354.376Z" fill="#000000" fill-rule="nonzero" fill-opacity="1"/><path d="M655.315 367.288 653.983 368.782 678.06 391.834C679.834 393.521 679.905 396.327 678.218 398.101 676.531 399.876 673.726 399.947 671.951 398.259 671.901 398.212 671.853 398.164 671.805 398.114L645.815 371.178C645.39 371.068 644.953 370.942 644.489 370.778L643.589 371.748 670.366 399.5C672.834 402.055 676.906 402.126 679.461 399.659 682.016 397.191 682.087 393.119 679.619 390.564 679.562 390.504 679.503 390.445 679.443 390.388Z" fill="#000000" fill-rule="nonzero" fill-opacity="1"/><path d="M682.857 322.7C681.972 321.507 680.585 320.792 679.1 320.763L679 320.763C677.433 320.765 675.932 321.393 674.832 322.508L638.232 359.108 602.352 393.032C599.793 395.452 599.681 399.488 602.101 402.047 603.305 403.32 604.98 404.042 606.732 404.042 608.506 404.038 610.198 403.299 611.406 402L643.69 367.231C645.169 367.978 646.782 368.426 648.435 368.548 649.442 368.597 650.421 368.21 651.121 367.485L673.43 342.441C679.253 335.905 682.708 330.724 683.701 327.041 684.098 325.541 683.787 323.942 682.857 322.7ZM681.77 326.52C681.12 328.933 678.843 333.358 671.936 341.111L649.652 366.128C649.323 366.433 648.882 366.585 648.435 366.548 646.8 366.548 644.314 365.323 643.211 364.808L609.94 400.643C608.289 402.408 605.519 402.5 603.755 400.848 601.99 399.197 601.898 396.428 603.55 394.663 603.607 394.602 603.666 394.543 603.726 394.485L639.619 360.541 676.239 323.921C676.965 323.183 677.956 322.765 678.992 322.762L679.06 322.762C680.694 322.841 681.955 324.229 681.877 325.863 681.866 326.085 681.83 326.306 681.77 326.52Z" fill="#000000" fill-rule="nonzero" fill-opacity="1"/></g></g></svg>