<svg width="96" height="98" xmlns="http://www.w3.org/2000/svg" xmlns:xlink="http://www.w3.org/1999/xlink" xml:space="preserve" overflow="hidden"><g transform="translate(-428 -270)"><g><g><g><g><path d="M498 302 480.477 302 482.807 277.239C482.91 276.139 482.102 275.164 481.003 275.061 480.999 275.061 480.995 275.06 480.992 275.06L478 274.8C477.94 274.8 477.881 274.793 477.822 274.793 476.792 274.793 475.93 275.575 475.831 276.6L473.441 302 454 302C453.448 302 453 302.448 453 303 453 303.552 453.448 304 454 304L455.751 304 460.751 361 491.251 361 496.251 304 498 304C498.552 304 499 303.552 499 303 499 302.448 498.552 302 498 302ZM477.824 276.788 480.816 277.052 478.468 302 475.45 302ZM475.262 304 478.28 304 477.056 317 474.038 317ZM473.252 304 472.029 317 458.9 317 457.76 304ZM489.417 359 462.583 359 459.074 319 492.926 319ZM493.1 317 479.065 317 480.289 304 494.241 304Z" fill="#000000" fill-rule="nonzero" fill-opacity="1"/><path d="M474.5 346C474.5 344.343 473.157 343 471.5 343 469.843 343 468.5 344.343 468.5 346 468.5 347.657 469.843 349 471.5 349 473.157 349 474.5 347.657 474.5 346ZM471.5 347C470.948 347 470.5 346.552 470.5 346 470.5 345.448 470.948 345 471.5 345 472.052 345 472.5 345.448 472.5 346 472.5 346.552 472.052 347 471.5 347Z" fill="#000000" fill-rule="nonzero" fill-opacity="1"/><path d="M483.5 346C483.5 344.343 482.157 343 480.5 343 478.843 343 477.5 344.343 477.5 346 477.5 347.657 478.843 349 480.5 349 482.157 349 483.5 347.657 483.5 346ZM480.5 347C479.948 347 479.5 346.552 479.5 346 479.5 345.448 479.948 345 480.5 345 481.052 345 481.5 345.448 481.5 346 481.5 346.552 481.052 347 480.5 347Z" fill="#000000" fill-rule="nonzero" fill-opacity="1"/><path d="M467 351C465.343 351 464 352.343 464 354 464 355.657 465.343 357 467 357 468.657 357 470 355.657 470 354 470 352.343 468.657 351 467 351ZM467 355C466.448 355 466 354.552 466 354 466 353.448 466.448 353 467 353 467.552 353 468 353.448 468 354 468 354.552 467.552 355 467 355Z" fill="#000000" fill-rule="nonzero" fill-opacity="1"/><path d="M476 351C474.343 351 473 352.343 473 354 473 355.657 474.343 357 476 357 477.657 357 479 355.657 479 354 479 352.343 477.657 351 476 351ZM476 355C475.448 355 475 354.552 475 354 475 353.448 475.448 353 476 353 476.552 353 477 353.448 477 354 477 354.552 476.552 355 476 355Z" fill="#000000" fill-rule="nonzero" fill-opacity="1"/><path d="M485 351C483.343 351 482 352.343 482 354 482 355.657 483.343 357 485 357 486.657 357 488 355.657 488 354 488 352.343 486.657 351 485 351ZM485 355C484.448 355 484 354.552 484 354 484 353.448 484.448 353 485 353 485.552 353 486 353.448 486 354 486 354.552 485.552 355 485 355Z" fill="#000000" fill-rule="nonzero" fill-opacity="1"/></g></g></g></g></g></svg>