<svg width="96" height="96" xmlns="http://www.w3.org/2000/svg" xmlns:xlink="http://www.w3.org/1999/xlink" xml:space="preserve" overflow="hidden"><g transform="translate(-592 -372)"><g><path d="M623 429C623 430.105 622.105 431 621 431 619.895 431 619 430.105 619 429 619 427.895 619.895 427 621 427 622.105 427 623 427.895 623 429Z" fill="#000000" fill-rule="nonzero" fill-opacity="1"/><path d="M627 412.5C627 413.328 626.328 414 625.5 414 624.672 414 624 413.328 624 412.5 624 411.672 624.672 411 625.5 411 626.328 411 627 411.672 627 412.5Z" fill="#000000" fill-rule="nonzero" fill-opacity="1"/><path d="M632 421.5C632 422.328 631.328 423 630.5 423 629.672 423 629 422.328 629 421.5 629 420.672 629.672 420 630.5 420 631.328 420 632 420.672 632 421.5Z" fill="#000000" fill-rule="nonzero" fill-opacity="1"/><path d="M654 428.5C654 429.328 653.328 430 652.5 430 651.672 430 651 429.328 651 428.5 651 427.672 651.672 427 652.5 427 653.328 427 654 427.672 654 428.5Z" fill="#000000" fill-rule="nonzero" fill-opacity="1"/><path d="M657 419C657 420.105 656.105 421 655 421 653.895 421 653 420.105 653 419 653 417.895 653.895 417 655 417 656.105 417 657 417.895 657 419Z" fill="#000000" fill-rule="nonzero" fill-opacity="1"/><path d="M640 384C640.552 384 641 383.552 641 383L641 378C641 377.448 640.552 377 640 377 639.448 377 639 377.448 639 378L639 383C639 383.552 639.448 384 640 384Z" fill="#000000" fill-rule="nonzero" fill-opacity="1"/><path d="M635.061 383.975C635.445 384.372 636.078 384.383 636.475 384 636.872 383.616 636.883 382.983 636.5 382.586 636.492 382.577 636.483 382.569 636.475 382.561L632.939 379.025C632.542 378.641 631.909 378.652 631.525 379.05 631.151 379.437 631.151 380.051 631.525 380.439Z" fill="#000000" fill-rule="nonzero" fill-opacity="1"/><path d="M644.232 384.268C644.497 384.268 644.752 384.163 644.939 383.975L648.475 380.439C648.872 380.055 648.883 379.422 648.5 379.025 648.116 378.628 647.483 378.617 647.086 379 647.077 379.008 647.069 379.017 647.061 379.025L643.525 382.561C643.135 382.952 643.135 383.585 643.525 383.975 643.713 384.163 643.967 384.268 644.232 384.268Z" fill="#000000" fill-rule="nonzero" fill-opacity="1"/><path d="M658.719 455.6C658.011 456.305 657.146 456.832 656.194 457.136L653.361 458.155 653.327 458.168C651.004 459.099 650.687 460.262 650.827 461.076 651.099 462.601 653.327 463.011 655.652 463.011 657.414 462.984 659.17 462.815 660.905 462.506 662.505 462.241 670.467 460.773 669.976 457.794 669.841 456.98 669.155 455.989 666.617 455.883L663.58 455.866C662.588 455.893 661.603 455.683 660.708 455.254L660.548 454.454 658.048 439.895C659.016 439.672 659.941 439.289 660.783 438.762 664.372 436.48 666.234 432.261 665.5 428.071L656.464 386.757C656.318 385.948 655.603 385.368 654.782 385.391 654.668 385.391 654.554 385.401 654.442 385.421L640.43 387.911C640.28 387.939 640.134 387.986 639.995 388.049 639.856 387.986 639.71 387.939 639.56 387.911L625.548 385.421C625.436 385.401 625.322 385.391 625.208 385.391 624.387 385.368 623.672 385.948 623.526 386.757L614.491 428.071C613.757 432.258 615.615 436.475 619.2 438.759 620.042 439.286 620.966 439.669 621.934 439.892L619.434 454.458 619.27 455.258C618.368 455.69 617.376 455.898 616.377 455.867L613.33 455.885C610.83 455.99 610.143 456.985 610.008 457.796 609.517 460.774 617.477 462.242 619.066 462.505 620.794 462.823 622.545 462.993 624.302 463.012 624.702 463.012 625.093 463 625.456 462.976 626.298 462.92 628.856 462.75 629.156 461.076 629.301 460.263 628.985 459.1 626.656 458.168L623.764 457.128C622.821 456.824 621.964 456.3 621.264 455.599L623.9 440.258C624.399 440.337 624.904 440.38 625.409 440.384 625.932 440.385 626.454 440.336 626.967 440.237 631.209 439.383 634.495 436.02 635.251 431.759L639.986 397.247C639.991 397.207 640 397.207 640.006 397.247L644.74 431.759C645.495 436.02 648.782 439.383 653.024 440.237 653.537 440.336 654.059 440.386 654.582 440.384 655.087 440.38 655.591 440.337 656.09 440.258L658.58 454.787ZM623.119 459.019 625.936 460.031C626.345 460.18 626.729 460.389 627.075 460.653 627.083 460.659 627.082 460.666 627.075 460.67 626.275 461.014 623.583 461.27 619.409 460.532 615.248 459.846 612.789 458.712 612.129 458.116 612.124 458.114 612.122 458.109 612.123 458.104 612.124 458.102 612.126 458.1 612.129 458.099 612.531 457.955 612.954 457.882 613.381 457.883L616.365 457.866C617.604 457.873 618.832 457.631 619.976 457.153 620.888 457.98 621.957 458.614 623.119 459.018ZM633.275 431.445C632.643 434.875 629.992 437.577 626.575 438.275 626.189 438.349 625.798 438.385 625.405 438.384 624.911 438.381 624.418 438.335 623.932 438.246L622.975 438.076C622.018 437.925 621.1 437.585 620.275 437.076 617.379 435.237 615.87 431.839 616.447 428.457L621.207 406.694C622.436 407.095 623.719 407.307 625.012 407.323 626.647 407.276 628.265 406.971 629.805 406.418 631.944 405.754 633.831 405.195 636.726 406.246ZM637.011 404.213C633.699 403.124 631.425 403.824 629.219 404.507 626.8 405.48 624.114 405.558 621.643 404.727L625.426 387.427 638.983 389.84ZM654.564 387.431 658.346 404.731C655.875 405.562 653.189 405.484 650.771 404.511 648.563 403.828 646.288 403.128 642.979 404.217L641.007 389.84ZM653.411 438.275C649.994 437.577 647.343 434.875 646.711 431.445L643.254 406.245C646.148 405.196 648.033 405.754 650.175 406.418 651.715 406.971 653.333 407.277 654.968 407.323 656.261 407.307 657.544 407.095 658.773 406.694L663.532 428.457C664.11 431.839 662.601 435.237 659.705 437.076 658.88 437.585 657.962 437.924 657.005 438.076L656.048 438.246C655.562 438.335 655.069 438.381 654.575 438.384 654.184 438.385 653.795 438.349 653.411 438.275ZM660.57 460.533C656.433 461.268 653.748 461.016 652.931 460.675 652.926 460.672 652.925 460.666 652.928 460.661 652.929 460.66 652.93 460.659 652.931 460.658 653.268 460.386 653.649 460.174 654.058 460.03L656.849 459.03C658.02 458.625 659.098 457.988 660.016 457.156 661.151 457.632 662.37 457.874 663.601 457.869L666.575 457.885C667.016 457.888 667.455 457.958 667.875 458.092 667.884 458.092 667.886 458.102 667.875 458.109 667.229 458.7 664.766 459.841 660.57 460.533Z" fill="#000000" fill-rule="nonzero" fill-opacity="1"/></g></g></svg>