<svg width="97" height="97" xmlns="http://www.w3.org/2000/svg" xmlns:xlink="http://www.w3.org/1999/xlink" xml:space="preserve" overflow="hidden"><g transform="translate(-609 -517)"><g><g><g><g><path d="M658 582C665.176 581.992 670.992 576.176 671 569L671 535C671 527.82 665.18 522 658 522 650.82 522 645 527.82 645 535L645 569C645.008 576.176 650.824 581.992 658 582ZM647 535C647 528.925 651.925 524 658 524 664.075 524 669 528.925 669 535L669 536 661 536 661 538 669 538 669 546 661 546 661 548 669 548 669 556 661 556 661 558 669 558 669 566 661 566 661 568 669 568 669 569C669 575.075 664.075 580 658 580 651.925 580 647 575.075 647 569Z" fill="#000000" fill-rule="nonzero" fill-opacity="1"/><path d="M659 606 659 589.949C670.184 589.412 678.982 580.197 679 569L679 559 677 559 677 569C677 579.493 668.493 588 658 588 647.507 588 639 579.493 639 569L639 559 637 559 637 569C637.019 580.197 645.816 589.412 657 589.949L657 606 634 606 634 608 682 608 682 606Z" fill="#000000" fill-rule="nonzero" fill-opacity="1"/></g></g></g></g></g></svg>