<svg width="97" height="97" xmlns="http://www.w3.org/2000/svg" xmlns:xlink="http://www.w3.org/1999/xlink" xml:space="preserve" overflow="hidden"><g transform="translate(-609 -153)"><g><g><g><g><path d="M664.1 208.41C670.806 206.89 679.514 201.158 679 195.5L676.8 164.5 640 164.5 637.4 195.5C636.971 201.071 645.337 206.863 651.941 208.4 653.719 208.793 654.989 210.364 655 212.185L655 232.01C654.994 233.523 653.867 234.797 652.366 234.987 646.5 235.58 642 237.321 642 239 642 241.209 649.163 243 658 243 666.837 243 674 241.209 674 239 674 237.321 669.5 235.58 663.634 234.987 662.133 234.797 661.006 233.523 661 232.01L661 212.222C661.009 210.381 662.299 208.794 664.1 208.41ZM674.937 166.5 675.966 181 640.623 181 641.839 166.5ZM652.19 206.392C646.119 204.892 639.081 199.718 639.39 195.667L640.455 183 676.108 183 677.008 195.681C677.38 199.771 669.978 205.027 663.657 206.46 661.622 207.073 654.744 207.037 652.19 206.392ZM663.37 236.969 663.401 236.969 663.433 236.969C666.209 237.143 668.93 237.821 671.464 238.969 671.469 238.971 671.471 238.977 671.469 238.982 671.468 238.984 671.466 238.986 671.464 238.987 669.747 239.847 665.096 240.987 658 240.987 650.904 240.987 646.253 239.843 644.536 238.987 644.531 238.985 644.529 238.979 644.531 238.974 644.532 238.972 644.534 238.97 644.536 238.969 647.07 237.821 649.791 237.143 652.567 236.969L652.599 236.969 652.63 236.969C655.12 236.639 656.985 234.522 657 232.01L657 212.185C656.996 210.986 656.62 209.818 655.925 208.842 656.762 208.887 657.634 208.912 658.498 208.912 659.028 208.912 659.553 208.902 660.063 208.884 659.375 209.861 659.004 211.027 659 212.222L659 232.01C659.015 234.522 660.88 236.639 663.37 236.969Z" fill="#000000" fill-rule="nonzero" fill-opacity="1"/></g></g></g></g></g></svg>